<mxfile host="www.draw.io" modified="2020-02-25T09:31:29.909Z" agent="Mozilla/5.0 (Macintosh; Intel Mac OS X 10_14_2) AppleWebKit/537.36 (KHTML, like Gecko) Chrome/79.0.3945.130 Safari/537.36" etag="yWTc71_glLpksiLrJULf" version="12.7.4" type="github">
  <diagram id="kvuolwtk9OOCn_3RF2M_" name="第 1 页">
    <mxGraphModel dx="946" dy="512" grid="1" gridSize="10" guides="1" tooltips="1" connect="1" arrows="1" fold="1" page="1" pageScale="1" pageWidth="827" pageHeight="1169" math="0" shadow="0">
      <root>
        <mxCell id="0" />
        <mxCell id="1" parent="0" />
        <mxCell id="WMp-n1UvFVCV1KFQ41O--1" value="AppHelloBikeUser" style="rounded=1;whiteSpace=wrap;html=1;" vertex="1" parent="1">
          <mxGeometry x="110" y="90" width="120" height="60" as="geometry" />
        </mxCell>
        <mxCell id="WMp-n1UvFVCV1KFQ41O--2" value="&lt;span style=&quot;white-space: normal&quot;&gt;AppHelloBikeOrder&lt;/span&gt;" style="rounded=1;whiteSpace=wrap;html=1;" vertex="1" parent="1">
          <mxGeometry x="340" y="90" width="120" height="60" as="geometry" />
        </mxCell>
        <mxCell id="WMp-n1UvFVCV1KFQ41O--3" value="&lt;span style=&quot;white-space: normal&quot;&gt;AppHelloBikePayment&lt;/span&gt;" style="rounded=1;whiteSpace=wrap;html=1;" vertex="1" parent="1">
          <mxGeometry x="560" y="90" width="120" height="60" as="geometry" />
        </mxCell>
        <mxCell id="WMp-n1UvFVCV1KFQ41O--4" value="&lt;div&gt;&lt;span&gt;ES-CLIENT&lt;/span&gt;&lt;/div&gt;" style="rounded=1;whiteSpace=wrap;html=1;fillColor=#d5e8d4;strokeColor=#82b366;align=center;" vertex="1" parent="1">
          <mxGeometry x="110" y="190" width="570" height="60" as="geometry" />
        </mxCell>
        <mxCell id="WMp-n1UvFVCV1KFQ41O--6" value="" style="rounded=0;whiteSpace=wrap;html=1;fillColor=#dae8fc;strokeColor=#6c8ebf;" vertex="1" parent="1">
          <mxGeometry x="110" y="290" width="570" height="380" as="geometry" />
        </mxCell>
        <mxCell id="WMp-n1UvFVCV1KFQ41O--12" value="" style="rounded=0;whiteSpace=wrap;html=1;fillColor=#ffe6cc;strokeColor=#d79b00;" vertex="1" parent="1">
          <mxGeometry x="150" y="340" width="110" height="210" as="geometry" />
        </mxCell>
        <mxCell id="WMp-n1UvFVCV1KFQ41O--13" value="" style="rounded=0;whiteSpace=wrap;html=1;fillColor=#fff2cc;strokeColor=#d6b656;" vertex="1" parent="1">
          <mxGeometry x="330" y="340" width="130" height="210" as="geometry" />
        </mxCell>
        <mxCell id="WMp-n1UvFVCV1KFQ41O--14" value="" style="rounded=0;whiteSpace=wrap;html=1;fillColor=#f8cecc;strokeColor=#b85450;align=left;" vertex="1" parent="1">
          <mxGeometry x="520" y="340" width="130" height="210" as="geometry" />
        </mxCell>
        <mxCell id="WMp-n1UvFVCV1KFQ41O--20" style="edgeStyle=orthogonalEdgeStyle;rounded=0;orthogonalLoop=1;jettySize=auto;html=1;exitX=0.5;exitY=0;exitDx=0;exitDy=0;" edge="1" parent="1" source="WMp-n1UvFVCV1KFQ41O--16" target="WMp-n1UvFVCV1KFQ41O--4">
          <mxGeometry relative="1" as="geometry" />
        </mxCell>
        <mxCell id="WMp-n1UvFVCV1KFQ41O--16" value="权限管理" style="rounded=1;whiteSpace=wrap;html=1;" vertex="1" parent="1">
          <mxGeometry x="165" y="360" width="80" height="40" as="geometry" />
        </mxCell>
        <mxCell id="WMp-n1UvFVCV1KFQ41O--17" value="" style="shape=flexArrow;endArrow=classic;html=1;" edge="1" parent="1">
          <mxGeometry width="50" height="50" relative="1" as="geometry">
            <mxPoint x="165" y="150" as="sourcePoint" />
            <mxPoint x="165" y="190" as="targetPoint" />
          </mxGeometry>
        </mxCell>
        <mxCell id="WMp-n1UvFVCV1KFQ41O--18" value="" style="shape=flexArrow;endArrow=classic;html=1;" edge="1" parent="1">
          <mxGeometry width="50" height="50" relative="1" as="geometry">
            <mxPoint x="399.5" y="150" as="sourcePoint" />
            <mxPoint x="400" y="190" as="targetPoint" />
          </mxGeometry>
        </mxCell>
        <mxCell id="WMp-n1UvFVCV1KFQ41O--19" value="" style="shape=flexArrow;endArrow=classic;html=1;" edge="1" parent="1">
          <mxGeometry width="50" height="50" relative="1" as="geometry">
            <mxPoint x="619.5" y="150" as="sourcePoint" />
            <mxPoint x="620" y="190" as="targetPoint" />
          </mxGeometry>
        </mxCell>
        <mxCell id="WMp-n1UvFVCV1KFQ41O--21" value="限流、降级" style="rounded=1;whiteSpace=wrap;html=1;" vertex="1" parent="1">
          <mxGeometry x="165" y="415" width="80" height="40" as="geometry" />
        </mxCell>
        <mxCell id="WMp-n1UvFVCV1KFQ41O--22" value="多租户支持" style="rounded=1;whiteSpace=wrap;html=1;" vertex="1" parent="1">
          <mxGeometry x="165" y="470" width="80" height="40" as="geometry" />
        </mxCell>
        <mxCell id="WMp-n1UvFVCV1KFQ41O--23" value="元数据管理" style="rounded=1;whiteSpace=wrap;html=1;" vertex="1" parent="1">
          <mxGeometry x="357" y="360" width="80" height="40" as="geometry" />
        </mxCell>
        <mxCell id="WMp-n1UvFVCV1KFQ41O--24" value="费用管理" style="rounded=1;whiteSpace=wrap;html=1;" vertex="1" parent="1">
          <mxGeometry x="357" y="415" width="80" height="40" as="geometry" />
        </mxCell>
        <mxCell id="WMp-n1UvFVCV1KFQ41O--25" value="运维工具" style="rounded=1;whiteSpace=wrap;html=1;" vertex="1" parent="1">
          <mxGeometry x="357" y="470" width="80" height="40" as="geometry" />
        </mxCell>
        <mxCell id="WMp-n1UvFVCV1KFQ41O--26" value="监控管理" style="rounded=1;whiteSpace=wrap;html=1;" vertex="1" parent="1">
          <mxGeometry x="545" y="360" width="80" height="40" as="geometry" />
        </mxCell>
        <mxCell id="WMp-n1UvFVCV1KFQ41O--27" value="自动诊断" style="rounded=1;whiteSpace=wrap;html=1;" vertex="1" parent="1">
          <mxGeometry x="545" y="415" width="80" height="40" as="geometry" />
        </mxCell>
        <mxCell id="WMp-n1UvFVCV1KFQ41O--33" value="平台开发" style="ellipse;whiteSpace=wrap;html=1;" vertex="1" parent="1">
          <mxGeometry x="150" y="560" width="110" height="70" as="geometry" />
        </mxCell>
        <mxCell id="WMp-n1UvFVCV1KFQ41O--34" value="运维部分" style="ellipse;whiteSpace=wrap;html=1;" vertex="1" parent="1">
          <mxGeometry x="345" y="560" width="110" height="70" as="geometry" />
        </mxCell>
        <mxCell id="WMp-n1UvFVCV1KFQ41O--35" value="治理部分" style="ellipse;whiteSpace=wrap;html=1;" vertex="1" parent="1">
          <mxGeometry x="530" y="560" width="110" height="70" as="geometry" />
        </mxCell>
      </root>
    </mxGraphModel>
  </diagram>
</mxfile>
